<svg width="44" height="44" viewBox="0 0 44 44" fill="none" xmlns="http://www.w3.org/2000/svg">
<circle cx="21.9247" cy="21.9247" r="21.9247" fill="white"/>
<g clip-path="url(#clip0_3779_138)">
<path opacity="0.995" fill-rule="evenodd" clip-rule="evenodd" d="M16.861 11.6017C20.0981 11.6017 23.3351 11.6017 26.5721 11.6017C29.0441 11.986 30.7087 13.3545 31.5657 15.7072C31.6749 16.089 31.7604 16.4706 31.8223 16.852C31.8223 20.089 31.8223 23.326 31.8223 26.563C31.5079 28.7254 30.3762 30.2978 28.4274 31.2803C27.8285 31.5438 27.2101 31.7214 26.5721 31.8132C23.3351 31.8132 20.0981 31.8132 16.861 31.8132C14.6987 31.4988 13.1262 30.3671 12.1437 28.4183C11.8803 27.8194 11.7026 27.201 11.6108 26.563C11.6108 23.326 11.6108 20.089 11.6108 16.852C11.9951 14.3799 13.3636 12.7153 15.7162 11.8583C16.0981 11.7491 16.4797 11.6636 16.861 11.6017ZM17.1769 15.194C20.2033 15.1874 23.2298 15.194 26.2563 15.2137C27.1284 15.2701 27.7402 15.6978 28.0919 16.4967C28.1649 16.7141 28.2044 16.9378 28.2103 17.1678C28.2366 20.1942 28.2366 23.2207 28.2103 26.2472C28.1539 27.1193 27.7263 27.7311 26.9273 28.0828C26.7099 28.1559 26.4862 28.1953 26.2563 28.2012C23.2298 28.2275 20.2033 28.2275 17.1769 28.2012C16.3048 28.1448 15.6929 27.7172 15.3412 26.9182C15.2681 26.7008 15.2287 26.4771 15.2228 26.2472C15.1845 23.0884 15.1976 19.9303 15.2623 16.773C15.541 15.8029 16.1792 15.2766 17.1769 15.194Z" fill="url(#paint0_linear_3779_138)"/>
<path opacity="0.998" fill-rule="evenodd" clip-rule="evenodd" d="M17.8875 17.1679C20.4403 17.1613 22.9931 17.1679 25.5458 17.1876C25.9077 17.2863 26.1379 17.5166 26.2366 17.8784C26.263 20.4312 26.263 22.9839 26.2366 25.5367C26.1379 25.8986 25.9077 26.1289 25.5458 26.2275C22.993 26.2539 20.4403 26.2539 17.8875 26.2275C17.5256 26.1289 17.2954 25.8986 17.1967 25.5367C17.1704 22.9839 17.1704 20.4312 17.1967 17.8784C17.3026 17.516 17.5329 17.2791 17.8875 17.1679Z" fill="url(#paint1_linear_3779_138)"/>
</g>
<defs>
<linearGradient id="paint0_linear_3779_138" x1="21.7166" y1="11.6017" x2="21.7166" y2="31.8132" gradientUnits="userSpaceOnUse">
<stop stop-color="#C7E63C"/>
<stop offset="1" stop-color="#FF8311"/>
</linearGradient>
<linearGradient id="paint1_linear_3779_138" x1="21.7167" y1="17.1654" x2="21.7167" y2="26.2473" gradientUnits="userSpaceOnUse">
<stop stop-color="#C7E63C"/>
<stop offset="1" stop-color="#FF8311"/>
</linearGradient>
<clipPath id="clip0_3779_138">
<rect width="20.2115" height="20.2115" fill="white" transform="translate(11.6306 11.6216)"/>
</clipPath>
</defs>
</svg>
