<svg width="44" height="44" viewBox="0 0 44 44" fill="none" xmlns="http://www.w3.org/2000/svg">
<circle cx="21.9247" cy="21.9247" r="21.9247" fill="white"/>
<g clip-path="url(#clip0_3779_141)">
<path opacity="0.971" fill-rule="evenodd" clip-rule="evenodd" d="M13.7456 12.2334C14.8136 12.1121 15.5044 12.5595 15.818 13.5756C15.9069 14.0654 15.8213 14.5194 15.5614 14.9375C15.8564 15.2654 16.159 15.5877 16.4694 15.9046C16.3495 16.0714 16.2048 16.1964 16.0351 16.2797C15.7457 15.9902 15.4562 15.7007 15.1667 15.4112C14.9523 15.4978 14.7286 15.5768 14.4956 15.648C13.7295 15.7812 13.1176 15.5377 12.66 14.9177C12.3179 14.273 12.3179 13.6282 12.66 12.9834C12.9321 12.5988 13.2939 12.3488 13.7456 12.2334Z" fill="url(#paint0_linear_3779_141)"/>
<path opacity="0.971" fill-rule="evenodd" clip-rule="evenodd" d="M29.2595 12.2334C30.3275 12.1121 31.0184 12.5595 31.332 13.5756C31.4657 14.4991 31.117 15.1637 30.2859 15.5691C29.7111 15.7468 29.1651 15.6876 28.6476 15.3915C28.3197 15.6864 27.9974 15.989 27.6805 16.2994C27.5357 16.181 27.4041 16.0494 27.2857 15.9046C27.5961 15.5877 27.8987 15.2654 28.1936 14.9375C27.8975 14.4201 27.8383 13.874 28.016 13.2992C28.257 12.7356 28.6715 12.3803 29.2595 12.2334Z" fill="url(#paint1_linear_3779_141)"/>
<path opacity="0.962" fill-rule="evenodd" clip-rule="evenodd" d="M21.3644 14.2862C24.4734 14.2225 26.8222 15.5121 28.4108 18.1548C29.595 20.5233 29.595 22.8919 28.4108 25.2604C26.7192 28.0703 24.2256 29.3401 20.9301 29.0698C18.1638 28.6184 16.1966 27.1249 15.0285 24.5893C13.9939 21.8179 14.3755 19.2651 16.1733 16.9311C17.5455 15.3535 19.2758 14.4718 21.3644 14.2862ZM21.8381 15.5099C24.5283 15.64 26.4429 16.9164 27.5818 19.3391C28.4888 21.8437 28.0545 24.0807 26.2791 26.0499C24.3014 27.8745 22.0447 28.3285 19.509 27.4118C17.0878 26.2884 15.8246 24.387 15.7193 21.7076C15.8073 19.1552 16.9784 17.2932 19.2327 16.1218C20.0657 15.7435 20.9341 15.5396 21.8381 15.5099ZM23.6145 17.5232C23.8697 17.4915 24.1065 17.5376 24.325 17.6614C24.858 18.1943 25.3909 18.7272 25.9238 19.2601C26.1183 19.5972 26.1051 19.9262 25.8843 20.247C25.2306 20.9271 24.553 21.5784 23.8513 22.2011C23.3453 22.3297 22.9769 22.1586 22.746 21.6879C22.7935 21.5549 22.8855 21.4694 23.0223 21.4313C23.1818 21.492 23.3134 21.5907 23.4171 21.7273C23.5277 21.7572 23.633 21.744 23.7329 21.6879C24.3316 21.0891 24.9303 20.4905 25.529 19.8917C25.5554 19.7864 25.5554 19.6812 25.529 19.5759C25.0224 19.0693 24.5158 18.5627 24.0092 18.0561C23.9039 18.0298 23.7987 18.0298 23.6934 18.0561C23.0947 18.6548 22.496 19.2535 21.8973 19.8523C21.787 20.0713 21.8397 20.2423 22.0552 20.3654C22.1868 20.5773 22.1342 20.7352 21.8973 20.8391C21.3261 20.5338 21.1945 20.0996 21.5025 19.5364C22.1144 18.9246 22.7263 18.3127 23.3381 17.7008C23.4328 17.6407 23.5249 17.5815 23.6145 17.5232ZM23.2592 19.9707C23.5021 19.97 23.6139 20.0885 23.5947 20.326C22.5618 21.3589 21.5288 22.3918 20.4959 23.4248C20.2524 23.4445 20.1406 23.3327 20.1603 23.0893C21.2012 22.055 22.2342 21.0154 23.2592 19.9707ZM20.0222 21.155C20.4131 21.1234 20.7224 21.2682 20.9499 21.5892C21.0115 21.7949 20.9391 21.9265 20.7327 21.9839C20.5733 21.9232 20.4416 21.8245 20.338 21.6879C20.2273 21.6581 20.1221 21.6712 20.0222 21.7273C19.4235 22.3261 18.8248 22.9248 18.226 23.5235C18.1997 23.6288 18.1997 23.734 18.226 23.8393C18.7326 24.3459 19.2393 24.8525 19.7459 25.3591C19.8511 25.3854 19.9564 25.3854 20.0617 25.3591C20.6604 24.7604 21.2591 24.1617 21.8578 23.563C21.9681 23.344 21.9154 23.1729 21.6999 23.0498C21.5683 22.8379 21.6209 22.68 21.8578 22.5761C22.429 22.8814 22.5605 23.3156 22.2526 23.8788C21.6407 24.4906 21.0288 25.1025 20.4169 25.7144C20.0961 25.9352 19.7672 25.9484 19.43 25.7539C18.8971 25.2209 18.3642 24.688 17.8313 24.1551C17.6368 23.818 17.6499 23.489 17.8708 23.1682C18.4826 22.5563 19.0945 21.9445 19.7064 21.3326C19.809 21.2617 19.9143 21.2025 20.0222 21.155Z" fill="#FFF5DE"/>
<path opacity="0.973" fill-rule="evenodd" clip-rule="evenodd" d="M21.2065 16.0625C23.6317 15.9034 25.4937 16.8376 26.7923 18.8653C27.5853 20.338 27.7432 21.8776 27.266 23.484C26.4519 25.6926 24.8795 26.9755 22.5486 27.3328C20.1225 27.5113 18.2605 26.5836 16.9628 24.5498C16.1698 23.0771 16.0119 21.5375 16.4891 19.9312C17.3097 17.7221 18.8822 16.4326 21.2065 16.0625ZM23.6145 17.5231C23.5249 17.5814 23.4328 17.6406 23.3381 17.7008C22.7263 18.3127 22.1144 18.9245 21.5025 19.5364C21.1945 20.0996 21.3261 20.5338 21.8973 20.8391C22.1342 20.7352 22.1868 20.5773 22.0552 20.3654C21.8397 20.2423 21.787 20.0712 21.8973 19.8522C22.496 19.2535 23.0947 18.6548 23.6934 18.0561C23.7987 18.0297 23.904 18.0297 24.0092 18.0561C24.5158 18.5627 25.0225 19.0693 25.529 19.5759C25.5554 19.6812 25.5554 19.7864 25.529 19.8917C24.9303 20.4904 24.3316 21.0891 23.7329 21.6878C23.633 21.744 23.5277 21.7571 23.4171 21.7273C23.3134 21.5906 23.1818 21.4919 23.0223 21.4312C22.8856 21.4694 22.7935 21.5549 22.746 21.6878C22.9769 22.1586 23.3453 22.3296 23.8513 22.201C24.553 21.5784 25.2306 20.9271 25.8843 20.247C26.1052 19.9261 26.1183 19.5972 25.9238 19.2601C25.3909 18.7272 24.858 18.1942 24.325 17.6613C24.1065 17.5375 23.8697 17.4914 23.6145 17.5231ZM23.2592 19.9706C22.2342 21.0154 21.2012 22.0549 20.1604 23.0892C20.1406 23.3327 20.2524 23.4445 20.4959 23.4248C21.5289 22.3918 22.5618 21.3589 23.5947 20.3259C23.6139 20.0884 23.5021 19.97 23.2592 19.9706ZM20.0222 21.1549C19.9143 21.2025 19.809 21.2617 19.7064 21.3325C19.0945 21.9444 18.4826 22.5563 17.8708 23.1682C17.6499 23.489 17.6368 23.8179 17.8313 24.1551C18.3642 24.688 18.8971 25.2209 19.4301 25.7538C19.7672 25.9483 20.0961 25.9352 20.4169 25.7143C21.0288 25.1025 21.6407 24.4906 22.2526 23.8787C22.5606 23.3156 22.429 22.8813 21.8578 22.576C21.6209 22.68 21.5683 22.8379 21.6999 23.0497C21.9154 23.1729 21.9681 23.3439 21.8578 23.5629C21.2591 24.1616 20.6604 24.7603 20.0617 25.3591C19.9564 25.3854 19.8511 25.3854 19.7459 25.3591C19.2393 24.8525 18.7326 24.3458 18.226 23.8393C18.1997 23.734 18.1997 23.6287 18.226 23.5234C18.8248 22.9247 19.4235 22.326 20.0222 21.7273C20.1221 21.6712 20.2273 21.658 20.338 21.6878C20.4417 21.8245 20.5733 21.9232 20.7328 21.9839C20.9391 21.9264 21.0115 21.7948 20.9499 21.5891C20.7224 21.2681 20.4131 21.1234 20.0222 21.1549Z" fill="url(#paint2_linear_3779_141)"/>
<path opacity="0.971" fill-rule="evenodd" clip-rule="evenodd" d="M16.0351 27.1158C16.2029 27.2177 16.3477 27.3492 16.4694 27.5106C16.159 27.8275 15.8564 28.1499 15.5614 28.4778C15.8401 28.9517 15.9125 29.4583 15.7785 29.9976C15.4079 30.9102 14.7302 31.2984 13.7456 31.1621C12.7234 30.8492 12.2826 30.1584 12.4231 29.0896C12.6008 28.3857 13.0416 27.9448 13.7456 27.7672C13.9956 27.7409 14.2456 27.7409 14.4956 27.7672C14.7286 27.8385 14.9523 27.9174 15.1667 28.004C15.4642 27.7132 15.7536 27.4171 16.0351 27.1158Z" fill="url(#paint3_linear_3779_141)"/>
<path opacity="0.971" fill-rule="evenodd" clip-rule="evenodd" d="M27.641 27.1158C27.9731 27.3885 28.2889 27.6846 28.5884 28.004C28.8028 27.9174 29.0265 27.8385 29.2595 27.7672C30.1831 27.6334 30.8476 27.9822 31.253 28.8133C31.5513 29.8411 31.2289 30.5977 30.2859 31.0832C29.258 31.3815 28.5014 31.0591 28.016 30.116C27.8383 29.5413 27.8975 28.9952 28.1936 28.4778C27.8987 28.1499 27.5961 27.8275 27.2857 27.5106C27.405 27.3782 27.5234 27.2466 27.641 27.1158Z" fill="url(#paint4_linear_3779_141)"/>
</g>
<defs>
<linearGradient id="paint0_linear_3779_141" x1="14.4364" y1="12.214" x2="14.4364" y2="16.2797" gradientUnits="userSpaceOnUse">
<stop stop-color="#C7E63C"/>
<stop offset="1" stop-color="#FF8311"/>
</linearGradient>
<linearGradient id="paint1_linear_3779_141" x1="29.3227" y1="12.214" x2="29.3227" y2="16.2994" gradientUnits="userSpaceOnUse">
<stop stop-color="#C7E63C"/>
<stop offset="1" stop-color="#FF8311"/>
</linearGradient>
<linearGradient id="paint2_linear_3779_141" x1="21.8775" y1="16.0452" x2="21.8775" y2="27.3544" gradientUnits="userSpaceOnUse">
<stop stop-color="#C7E63C"/>
<stop offset="1" stop-color="#FF8311"/>
</linearGradient>
<linearGradient id="paint3_linear_3779_141" x1="14.4335" y1="27.1158" x2="14.4335" y2="31.1887" gradientUnits="userSpaceOnUse">
<stop stop-color="#C7E63C"/>
<stop offset="1" stop-color="#FF8311"/>
</linearGradient>
<linearGradient id="paint4_linear_3779_141" x1="29.3231" y1="27.1158" x2="29.3231" y2="31.1907" gradientUnits="userSpaceOnUse">
<stop stop-color="#C7E63C"/>
<stop offset="1" stop-color="#FF8311"/>
</linearGradient>
<clipPath id="clip0_3779_141">
<rect width="20.2115" height="20.2115" fill="white" transform="translate(11.7915 11.6216)"/>
</clipPath>
</defs>
</svg>
