<svg width="44" height="44" viewBox="0 0 44 44" fill="none" xmlns="http://www.w3.org/2000/svg">
<circle cx="21.9247" cy="21.9247" r="21.9247" fill="white"/>
<g clip-path="url(#clip0_3779_140)">
<path opacity="0.982" fill-rule="evenodd" clip-rule="evenodd" d="M21.2035 12.51C21.5327 12.5035 21.8617 12.51 22.1904 12.5298C22.4625 12.5782 22.6533 12.7295 22.7628 12.9837C22.8286 13.2337 22.8944 13.4838 22.9602 13.7338C23.0952 13.792 23.2268 13.8578 23.3549 13.9312C23.6062 13.7232 23.8891 13.5719 24.2036 13.4772C24.4386 13.4327 24.6492 13.4854 24.8353 13.6351C25.026 13.8259 25.2169 14.0167 25.4076 14.2075C25.5391 14.4397 25.5786 14.6897 25.5261 14.9575C25.3979 15.2009 25.2597 15.4377 25.1116 15.6681C25.167 15.8013 25.2262 15.9329 25.2892 16.0628C25.6072 16.1318 25.9165 16.2305 26.2169 16.3589C26.337 16.4613 26.4226 16.5863 26.4735 16.7339C26.4998 17.1287 26.4998 17.5234 26.4735 17.9182C26.39 18.0938 26.265 18.232 26.0985 18.3327C25.8384 18.4174 25.5752 18.4898 25.309 18.5498C25.2434 18.68 25.1776 18.8116 25.1116 18.9446C25.2704 19.1831 25.4085 19.4332 25.5261 19.6946C25.567 19.9273 25.5407 20.151 25.4471 20.3657C25.23 20.5828 25.0129 20.7999 24.7958 21.017C24.5472 21.1665 24.2841 21.1928 24.0063 21.096C23.7853 20.9757 23.5682 20.8507 23.3549 20.721C23.2278 20.7616 23.1027 20.8076 22.9799 20.8591C22.9027 21.1745 22.804 21.4837 22.6838 21.7868C22.5778 21.9326 22.4396 22.0313 22.2693 22.0829C21.8591 22.1184 21.4511 22.1052 21.0456 22.0434C20.879 21.9427 20.754 21.8045 20.6706 21.6289C20.6048 21.3789 20.539 21.1289 20.4732 20.8789C20.3466 20.8157 20.2151 20.7631 20.0784 20.721C19.8306 20.8745 19.5741 21.0127 19.3087 21.1355C19.0666 21.1854 18.8429 21.146 18.6376 21.017C18.4205 20.7999 18.2033 20.5828 17.9862 20.3657C17.8727 20.108 17.8595 19.8449 17.9467 19.5762C18.0618 19.3591 18.1868 19.1486 18.3218 18.9446C18.2583 18.8308 18.2057 18.7124 18.1639 18.5893C17.8925 18.4966 17.6161 18.4111 17.3349 18.3327C17.1515 18.2284 17.0265 18.0771 16.9599 17.8787C16.9232 17.4548 16.9364 17.0337 16.9993 16.6155C17.1027 16.4333 17.254 16.3083 17.4533 16.2405C17.6782 16.1929 17.9019 16.1403 18.1244 16.0826C18.2014 15.9502 18.2672 15.812 18.3218 15.6681C18.1737 15.4377 18.0355 15.2009 17.9073 14.9575C17.8547 14.6897 17.8942 14.4397 18.0257 14.2075C18.2165 14.0167 18.4073 13.8259 18.5981 13.6351C18.8389 13.4536 19.102 13.4142 19.3876 13.5167C19.6282 13.6391 19.8585 13.7773 20.0784 13.9312C20.196 13.8568 20.321 13.7976 20.4535 13.7535C20.5339 13.4699 20.6195 13.187 20.71 12.9048C20.824 12.7048 20.9885 12.5732 21.2035 12.51ZM21.4403 16.0628C22.2491 15.9977 22.7557 16.3529 22.9602 17.1287C22.9826 17.9816 22.5681 18.4685 21.7167 18.5893C20.6597 18.3816 20.2847 17.7631 20.5916 16.7339C20.7985 16.4105 21.0815 16.1868 21.4403 16.0628Z" fill="url(#paint0_linear_3779_140)"/>
<path opacity="0.944" fill-rule="evenodd" clip-rule="evenodd" d="M15.519 14.7996C16.2571 14.7263 16.9479 14.871 17.5915 15.2339C17.7381 15.4566 17.7184 15.6605 17.5322 15.8457C17.1589 15.8781 16.7905 15.9439 16.4269 16.0431C15.9236 16.3182 15.6406 16.7458 15.5782 17.3261C15.5315 17.6534 15.5117 17.9823 15.519 18.313C15.8854 18.2539 16.2538 18.2342 16.6243 18.2537C16.8106 18.3839 16.8698 18.5616 16.8019 18.7867C16.1572 19.6157 15.5124 20.4446 14.8676 21.2736C14.6453 21.4355 14.4282 21.4289 14.2163 21.2539C13.4465 20.5894 12.6767 19.9249 11.907 19.2604C11.7826 18.9634 11.8681 18.7595 12.1635 18.6485C12.4794 18.613 12.7952 18.5801 13.111 18.5498C13.0601 17.67 13.2378 16.841 13.6439 16.0628C14.0843 15.3656 14.7093 14.9445 15.519 14.7996ZM15.5585 15.6286C15.0554 16.1691 14.7857 16.8139 14.7492 17.5629C14.7229 17.9972 14.7229 18.4314 14.7492 18.8656C14.7821 19.0038 14.8676 19.0893 15.0058 19.1222C15.1796 19.1247 15.3506 19.1313 15.519 19.1419C15.1906 19.5754 14.8485 19.9965 14.4926 20.4052C14.0773 20.049 13.6562 19.7003 13.2294 19.3591C13.4136 19.3196 13.5978 19.2801 13.782 19.2406C13.8432 19.1927 13.8892 19.1335 13.9202 19.063C13.8516 18.3398 13.9174 17.6292 14.1176 16.9313C14.356 16.2256 14.8363 15.7914 15.5585 15.6286Z" fill="url(#paint1_linear_3779_140)"/>
<path opacity="0.945" fill-rule="evenodd" clip-rule="evenodd" d="M29.5723 14.7996C29.7701 14.793 29.9675 14.7996 30.1644 14.8193C30.4217 14.9869 30.4677 15.204 30.3026 15.4707C30.0969 15.6894 29.9061 15.9197 29.7302 16.1615C30.4419 16.749 30.9091 17.4925 31.1316 18.3919C31.3112 19.6577 30.8572 20.6249 29.7697 21.2933C29.5055 21.4551 29.2226 21.5669 28.9209 21.6289C28.5708 21.5736 28.4524 21.3762 28.5657 21.0367C29.3936 20.3244 29.4726 19.5349 28.8025 18.6682C28.6051 18.4445 28.4078 18.2208 28.2104 17.9971C27.9949 18.2784 27.7646 18.5482 27.5196 18.8064C27.2235 18.8986 27.0327 18.7999 26.9472 18.5103C26.8279 17.4897 26.7029 16.4699 26.5721 15.4509C26.5813 15.2743 26.6603 15.1427 26.809 15.0562C27.7364 14.9745 28.6575 14.889 29.5723 14.7996ZM28.6249 15.668C28.772 15.6553 28.9167 15.6685 29.0591 15.7075C28.8523 15.8709 28.7668 16.0814 28.8025 16.3391C29.1437 16.6672 29.4727 17.0093 29.7894 17.3655C30.1581 17.8267 30.362 18.3531 30.4013 18.9445C30.3865 19.3197 30.2747 19.6617 30.0657 19.9709C30.0625 19.5732 29.9836 19.1916 29.8289 18.8261C29.4667 18.1345 28.9732 17.5489 28.3485 17.0694C28.1987 17.0364 28.054 17.0495 27.9143 17.1089C27.8296 17.2319 27.7309 17.3437 27.6182 17.4444C27.5431 16.8932 27.4839 16.3405 27.4406 15.7865C27.8418 15.7553 28.2366 15.7158 28.6249 15.668Z" fill="url(#paint2_linear_3779_140)"/>
<path opacity="0.981" fill-rule="evenodd" clip-rule="evenodd" d="M16.1111 21.3131C16.4666 21.3066 16.8219 21.3131 17.1769 21.3329C17.4085 21.3925 17.573 21.5307 17.6704 21.7474C17.7453 22.0099 17.8176 22.2731 17.8875 22.5369C18.0382 22.6201 18.1961 22.6662 18.3612 22.675C18.6757 22.3859 19.0441 22.2543 19.4665 22.2803C19.5354 22.2989 19.6013 22.3252 19.6639 22.3592C19.8942 22.5895 20.1245 22.8198 20.3547 23.0501C20.5212 23.3168 20.5343 23.5932 20.3942 23.879C20.2847 24.0805 20.1597 24.2713 20.0192 24.4514C20.0932 24.56 20.1458 24.6784 20.1771 24.8067C20.1931 24.844 20.2194 24.8704 20.256 24.8857C20.5419 24.9341 20.8183 25.013 21.085 25.1225C21.2604 25.2427 21.3723 25.4072 21.4206 25.616C21.4469 25.9449 21.4469 26.2739 21.4206 26.6029C21.3402 26.8808 21.1625 27.0716 20.8876 27.1753C20.6654 27.2341 20.4417 27.2867 20.2166 27.3332C20.1217 27.4859 20.0756 27.6504 20.0784 27.8266C20.2608 28.0489 20.3924 28.2989 20.4732 28.5767C20.5139 28.7896 20.4745 28.987 20.3547 29.1688C20.1376 29.3859 19.9205 29.603 19.7034 29.8201C19.4661 29.9666 19.2161 29.9929 18.9533 29.8991C18.7282 29.7734 18.5045 29.6484 18.2823 29.5241C18.1467 29.559 18.0151 29.605 17.8875 29.6622C17.8224 29.9817 17.7237 30.291 17.5914 30.5899C17.4808 30.7536 17.3295 30.8523 17.1375 30.886C16.8085 30.9123 16.4795 30.9123 16.1506 30.886C15.8628 30.8351 15.672 30.6706 15.5782 30.3925C15.5189 30.1553 15.4596 29.9184 15.4005 29.682C15.257 29.6275 15.1188 29.5618 14.986 29.4846C14.7425 29.682 14.4727 29.8334 14.1768 29.9386C13.9619 29.9792 13.7645 29.9397 13.5846 29.8201C13.3544 29.5899 13.1241 29.3596 12.8938 29.1293C12.7812 28.8982 12.7681 28.6613 12.8543 28.4187C12.973 28.1891 13.098 27.9654 13.2294 27.7477C13.1845 27.6132 13.1319 27.4816 13.0715 27.3529C12.7782 27.2796 12.4887 27.1941 12.203 27.0963C12.0387 26.9853 11.9269 26.834 11.8675 26.6423C11.8411 26.2871 11.8411 25.9318 11.8675 25.5765C11.936 25.3106 12.1005 25.1329 12.3609 25.0436C12.5832 24.9847 12.8069 24.9321 13.032 24.8857C13.1426 24.7373 13.2018 24.5729 13.2096 24.3922C13.0451 24.1747 12.9135 23.9379 12.8149 23.6817C12.7594 23.4195 12.812 23.1827 12.9728 22.9711C13.1504 22.7935 13.3281 22.6158 13.5057 22.4382C13.7605 22.2561 14.0368 22.2166 14.3347 22.3198C14.5598 22.4454 14.7835 22.5704 15.0058 22.6948C15.124 22.6488 15.2424 22.6028 15.3611 22.5566C15.453 22.2302 15.5649 21.9078 15.6966 21.5895C15.8149 21.4616 15.9531 21.3695 16.1111 21.3131ZM16.5848 24.8265C17.5861 24.9655 18.0006 25.5313 17.8283 26.5239C17.392 27.3584 16.7538 27.5623 15.9137 27.1358C15.292 26.5712 15.2197 25.9461 15.6966 25.2607C15.9469 25.0138 16.243 24.869 16.5848 24.8265Z" fill="url(#paint3_linear_3779_140)"/>
<path opacity="0.981" fill-rule="evenodd" clip-rule="evenodd" d="M26.2564 21.3131C26.6119 21.3066 26.9672 21.3131 27.3222 21.3329C27.5882 21.4014 27.7658 21.5659 27.8551 21.8263C27.9139 22.0484 27.9666 22.2721 28.013 22.4974C28.1614 22.608 28.3258 22.6673 28.5065 22.675C28.724 22.5105 28.9608 22.3789 29.217 22.2803C29.4792 22.2248 29.7161 22.2774 29.9276 22.4382C30.1052 22.6158 30.2829 22.7935 30.4605 22.9711C30.6426 23.2259 30.6821 23.5022 30.579 23.8001C30.4533 24.0253 30.3283 24.249 30.2039 24.4712C30.2499 24.5894 30.2959 24.7078 30.3421 24.8265C30.6685 24.9184 30.9909 25.0303 31.3093 25.162C31.4398 25.2717 31.5253 25.4098 31.5658 25.5765C31.5922 25.9318 31.5922 26.2871 31.5658 26.6423C31.5062 26.8739 31.368 27.0384 31.1513 27.1358C30.8888 27.2107 30.6256 27.283 30.3618 27.3529C30.2786 27.5036 30.2325 27.6615 30.2237 27.8266C30.5128 28.1411 30.6444 28.5095 30.6184 28.9319C30.5998 29.0009 30.5735 29.0667 30.5395 29.1293C30.3092 29.3596 30.0789 29.5899 29.8487 29.8201C29.5819 29.9866 29.3055 29.9997 29.0197 29.8596C28.8255 29.7395 28.6347 29.6145 28.4473 29.4846C28.3387 29.5586 28.2203 29.6112 28.092 29.6425C28.0547 29.6585 28.0283 29.6848 28.013 29.7214C27.9646 30.0073 27.8857 30.2837 27.7762 30.5504C27.656 30.7258 27.4915 30.8377 27.2827 30.886C26.9538 30.9123 26.6248 30.9123 26.2958 30.886C26.0179 30.8056 25.8271 30.6279 25.7234 30.3531C25.6646 30.1308 25.612 29.9071 25.5655 29.682C25.4128 29.5871 25.2483 29.541 25.0721 29.5438C24.8498 29.7262 24.5998 29.8578 24.3221 29.9386C24.1091 29.9793 23.9117 29.9399 23.7299 29.8201C23.5128 29.603 23.2957 29.3859 23.0786 29.1688C22.9321 28.9315 22.9058 28.6815 22.9996 28.4187C23.1253 28.1936 23.2503 27.9699 23.3746 27.7477C23.3397 27.6121 23.2937 27.4805 23.2365 27.3529C22.917 27.2878 22.6077 27.1891 22.3088 27.0568C22.1451 26.9462 22.0464 26.7949 22.0127 26.6029C21.9864 26.2739 21.9864 25.9449 22.0127 25.616C22.0636 25.3282 22.2281 25.1374 22.5062 25.0436C22.7441 24.9868 22.9809 24.9276 23.2167 24.8659C23.2712 24.7224 23.3369 24.5842 23.4141 24.4514C23.2167 24.2079 23.0653 23.9381 22.9601 23.6422C22.9195 23.4273 22.959 23.2299 23.0786 23.0501C23.3088 22.8198 23.5391 22.5895 23.7694 22.3592C24.0005 22.2466 24.2374 22.2335 24.48 22.3198C24.7096 22.4384 24.9333 22.5634 25.151 22.6948C25.2855 22.6499 25.4172 22.5973 25.5458 22.5369C25.614 22.242 25.6995 21.9526 25.8024 21.6684C25.9226 21.5068 26.0739 21.3884 26.2564 21.3131ZM26.7301 24.8265C27.5312 24.8841 27.9785 25.3117 28.0722 26.1094C27.9295 26.9895 27.4163 27.3974 26.5327 27.3332C25.8135 27.1005 25.4911 26.6071 25.5655 25.8528C25.7403 25.2633 26.1285 24.9212 26.7301 24.8265Z" fill="url(#paint4_linear_3779_140)"/>
</g>
<defs>
<linearGradient id="paint0_linear_3779_140" x1="21.7164" y1="12.5076" x2="21.7164" y2="22.1023" gradientUnits="userSpaceOnUse">
<stop stop-color="#C7E63C"/>
<stop offset="1" stop-color="#FF8311"/>
</linearGradient>
<linearGradient id="paint1_linear_3779_140" x1="14.7701" y1="14.7811" x2="14.7701" y2="21.3903" gradientUnits="userSpaceOnUse">
<stop stop-color="#C7E63C"/>
<stop offset="1" stop-color="#FF8311"/>
</linearGradient>
<linearGradient id="paint2_linear_3779_140" x1="28.871" y1="14.7971" x2="28.871" y2="21.6289" gradientUnits="userSpaceOnUse">
<stop stop-color="#C7E63C"/>
<stop offset="1" stop-color="#FF8311"/>
</linearGradient>
<linearGradient id="paint3_linear_3779_140" x1="16.644" y1="21.3107" x2="16.644" y2="30.9057" gradientUnits="userSpaceOnUse">
<stop stop-color="#C7E63C"/>
<stop offset="1" stop-color="#FF8311"/>
</linearGradient>
<linearGradient id="paint4_linear_3779_140" x1="26.7893" y1="21.3107" x2="26.7893" y2="30.9057" gradientUnits="userSpaceOnUse">
<stop stop-color="#C7E63C"/>
<stop offset="1" stop-color="#FF8311"/>
</linearGradient>
<clipPath id="clip0_3779_140">
<rect width="20.2115" height="20.2115" fill="white" transform="translate(11.6306 11.6218)"/>
</clipPath>
</defs>
</svg>
