<svg width="44" height="44" viewBox="0 0 44 44" fill="none" xmlns="http://www.w3.org/2000/svg">
<circle cx="21.9247" cy="21.9247" r="21.9247" fill="white"/>
<path opacity="0.948" fill-rule="evenodd" clip-rule="evenodd" d="M21.6801 12.8654C25.0025 12.878 27.575 14.2597 29.3976 17.0103C30.8387 19.4799 31.1019 22.0722 30.1872 24.787C29.9421 25.4547 29.6198 26.0798 29.22 26.6621C29.73 27.5464 29.6116 28.3359 28.8647 29.0307C28.0136 29.5453 27.2307 29.4597 26.5159 28.7741C26.0311 28.0601 26.0179 27.3364 26.4764 26.6029C27.0522 25.9836 27.743 25.806 28.5489 26.07C30.186 23.3501 30.2715 20.5802 28.8055 17.7603C27.1722 15.1056 24.7839 13.7437 21.6407 13.6746C21.4376 13.4931 21.3915 13.276 21.5025 13.0233C21.5577 12.9613 21.6169 12.9086 21.6801 12.8654ZM27.6804 26.8397C28.408 26.8618 28.7172 27.2302 28.6081 27.9451C28.3918 28.39 28.0431 28.5545 27.562 28.4385C27.0111 28.1362 26.886 27.7085 27.187 27.1556C27.3286 27.0061 27.4931 26.9008 27.6804 26.8397Z" fill="url(#paint0_linear_3779_139)"/>
<path opacity="0.948" fill-rule="evenodd" clip-rule="evenodd" d="M15.7193 14.0496C17.0541 14.0882 17.6791 14.7724 17.5944 16.1023C17.2994 17.094 16.6349 17.5348 15.6009 17.4247C15.4699 17.3807 15.3383 17.3543 15.2062 17.3458C13.5691 20.0651 13.4836 22.835 14.9496 25.6554C16.5555 28.2717 18.9043 29.6205 21.996 29.7017C22.3267 29.8632 22.3991 30.1066 22.2131 30.432C22.1774 30.4794 22.1314 30.5123 22.0749 30.5307C18.7514 30.5371 16.179 29.162 14.3574 26.4054C12.8381 23.785 12.6275 21.0612 13.7258 18.234C13.9399 17.707 14.2096 17.2135 14.5351 16.7536C14.0411 15.8948 14.1463 15.1184 14.8509 14.4246C15.1127 14.2258 15.4021 14.1008 15.7193 14.0496ZM15.8378 14.918C16.3795 14.9335 16.6822 15.2098 16.7457 15.747C16.641 16.3848 16.2726 16.6414 15.6404 16.5168C15.1183 16.2494 14.9801 15.848 15.2259 15.3128C15.3799 15.0949 15.5838 14.9633 15.8378 14.918Z" fill="url(#paint1_linear_3779_139)"/>
<path opacity="0.988" fill-rule="evenodd" clip-rule="evenodd" d="M21.6407 15.9444C21.8977 15.9274 22.1477 15.9603 22.3907 16.0431C23.9451 16.9604 25.5899 17.671 27.3252 18.1748C27.6978 18.4462 27.8952 18.8147 27.9173 19.2801C27.8383 20.1426 27.7528 21.0045 27.6607 21.8658C27.3225 23.9709 26.329 25.6881 24.6803 27.0173C23.9698 27.5174 23.2592 28.0174 22.5486 28.5174C22.1013 28.7543 21.6538 28.7543 21.2065 28.5174C20.4959 28.0174 19.7853 27.5174 19.0748 27.0173C17.4261 25.6881 16.4326 23.9709 16.0944 21.8658C16.0023 21.0045 15.9168 20.1427 15.8378 19.2801C15.8599 18.8147 16.0573 18.4462 16.4299 18.1748C17.3256 17.8981 18.2073 17.5823 19.0748 17.2274C19.9476 16.8173 20.8029 16.3896 21.6407 15.9444ZM23.4171 20.4841C23.7138 20.4454 23.898 20.5704 23.9698 20.8591C23.9446 20.9477 23.9117 21.0333 23.8711 21.1157C23.1265 21.8734 22.3699 22.6169 21.6012 23.3461C21.4775 23.3773 21.3591 23.3641 21.2459 23.3066C20.7788 22.8395 20.3117 22.3723 19.8446 21.9052C19.7465 21.5164 19.8978 21.3256 20.2985 21.3328C20.6907 21.6459 21.0591 21.9881 21.4038 22.3592C21.4433 22.3855 21.4828 22.3855 21.5223 22.3592C22.1497 21.7251 22.7813 21.1001 23.4171 20.4841Z" fill="url(#paint2_linear_3779_139)"/>
<defs>
<linearGradient id="paint0_linear_3779_139" x1="26.0818" y1="12.8654" x2="26.0818" y2="29.3616" gradientUnits="userSpaceOnUse">
<stop stop-color="#C7E63C"/>
<stop offset="1" stop-color="#FF7A00"/>
</linearGradient>
<linearGradient id="paint1_linear_3779_139" x1="17.6741" y1="14.0496" x2="17.6741" y2="30.5307" gradientUnits="userSpaceOnUse">
<stop stop-color="#C7E63C"/>
<stop offset="1" stop-color="#FF7A00"/>
</linearGradient>
<linearGradient id="paint2_linear_3779_139" x1="21.8775" y1="15.9401" x2="21.8775" y2="28.695" gradientUnits="userSpaceOnUse">
<stop stop-color="#C7E63C"/>
<stop offset="1" stop-color="#FF7A00"/>
</linearGradient>
</defs>
</svg>
