<svg width="44" height="44" viewBox="0 0 44 44" fill="none" xmlns="http://www.w3.org/2000/svg">
<circle cx="21.9247" cy="21.9247" r="21.9247" fill="white"/>
<path opacity="0.949" fill-rule="evenodd" clip-rule="evenodd" d="M29.0197 14.6118C29.6065 14.5136 30.0079 14.7373 30.2237 15.2829C30.3367 16.0179 30.0275 16.4258 29.296 16.5067C29.1825 16.5038 29.0707 16.4906 28.9604 16.4672C28.3184 17.1621 27.6736 17.8595 27.0261 18.5594C27.1958 19.0622 27.084 19.4898 26.6906 19.8424C26.0791 20.1402 25.5988 20.002 25.2497 19.4279C25.2034 19.2206 25.1771 19.0101 25.1708 18.7963C24.3456 18.1961 23.51 17.6106 22.6641 17.0396C22.5398 17.0288 22.4213 17.0551 22.3088 17.1185C21.8452 17.2251 21.4768 17.0869 21.2035 16.704C21.164 16.6909 21.1245 16.6777 21.085 16.6646C18.7654 16.9884 16.4495 17.3305 14.1373 17.6909C13.981 18.1566 13.6587 18.4066 13.1702 18.441C12.4757 18.3253 12.1731 17.9174 12.2622 17.2172C12.5286 16.5678 12.9957 16.3638 13.6636 16.6054C13.8084 16.6975 13.9268 16.8159 14.0189 16.9606C16.3795 16.6676 18.7349 16.332 21.085 15.954C21.3286 15.3257 21.7759 15.1086 22.4272 15.3027C22.8731 15.5431 23.0639 15.9181 22.9996 16.4277C23.8612 17.0427 24.7296 17.648 25.605 18.2436C25.6761 18.1719 25.7616 18.1258 25.8616 18.1054C26.0671 18.0755 26.2711 18.0821 26.4735 18.1252C27.1155 17.4303 27.7603 16.7329 28.4078 16.033C28.1953 15.3729 28.3993 14.8992 29.0197 14.6118Z" fill="url(#paint0_linear_3779_137)"/>
<path opacity="0.931" fill-rule="evenodd" clip-rule="evenodd" d="M17.5717 18.7174C19.5313 18.561 21.1826 19.1926 22.5259 20.6122C23.9891 22.4193 24.3181 24.4194 23.5128 26.6125C22.3157 29.0901 20.3353 30.2414 17.5717 30.0666C15.2731 29.7152 13.7007 28.4585 12.8544 26.2967C12.1396 23.8855 12.6857 21.813 14.4926 20.0793C15.3916 19.3336 16.4179 18.8797 17.5717 18.7174ZM18.1639 19.349C20.4058 19.4546 21.9913 20.5205 22.9207 22.5465C23.6653 24.7854 23.1719 26.7 21.4403 28.2902C19.7929 29.5331 18.0165 29.7568 16.1111 28.9613C13.9482 27.8004 13.0074 25.9911 13.2886 23.5334C13.7629 21.3932 15.0591 20.0444 17.177 19.4871C17.5092 19.4224 17.8382 19.3764 18.1639 19.349ZM17.927 20.2964C18.1375 20.2964 18.3481 20.2964 18.5586 20.2964C18.5586 20.5069 18.5586 20.7175 18.5586 20.928C18.3481 20.928 18.1375 20.928 17.927 20.928C17.927 20.7175 17.927 20.5069 17.927 20.2964ZM18.1244 21.2833C18.2701 21.2624 18.3951 21.3019 18.4994 21.4017C18.7198 21.724 18.9303 22.0529 19.131 22.3886C19.1809 22.8068 19.2072 23.2279 19.21 23.6518C19.3308 23.7881 19.4097 23.946 19.4468 24.1255C19.4636 24.3767 19.4636 24.6267 19.4468 24.8756C19.8482 25.2769 20.2495 25.6782 20.6508 26.0796C20.5127 26.2177 20.3745 26.3559 20.2363 26.4941C19.8531 26.0976 19.4583 25.716 19.0521 25.3493C18.6764 25.625 18.262 25.6974 17.8086 25.5664C17.69 25.5204 17.5847 25.4545 17.4928 25.369C16.7954 25.3559 16.098 25.3427 15.4006 25.3295C15.0225 25.1228 14.6541 24.8991 14.2952 24.6584C14.1662 24.5221 14.1464 24.3708 14.236 24.2045C14.574 23.9587 14.9227 23.7284 15.2821 23.5136C15.9505 23.4561 16.6215 23.4364 17.2954 23.4544C17.279 23.0959 17.2988 22.7406 17.3546 22.3886C17.5917 22.0013 17.8483 21.6328 18.1244 21.2833ZM21.7167 24.086C21.9272 24.086 22.1378 24.086 22.3483 24.086C22.3483 24.2966 22.3483 24.5071 22.3483 24.7177C22.1378 24.7177 21.9272 24.7177 21.7167 24.7177C21.7167 24.5071 21.7167 24.2966 21.7167 24.086ZM17.927 27.8757C18.1375 27.8757 18.3481 27.8757 18.5586 27.8757C18.5586 28.0862 18.5586 28.2968 18.5586 28.5073C18.3481 28.5073 18.1375 28.5073 17.927 28.5073C17.927 28.2968 17.927 28.0862 17.927 27.8757Z" fill="url(#paint1_linear_3779_137)"/>
<path fill-rule="evenodd" clip-rule="evenodd" d="M28.6644 19.349C29.0855 19.349 29.5065 19.349 29.9276 19.349C29.9276 23.3492 29.9276 27.3494 29.9276 31.3496C29.5065 31.3496 29.0855 31.3496 28.6644 31.3496C28.6644 27.3494 28.6644 23.3492 28.6644 19.349Z" fill="url(#paint2_linear_3779_137)"/>
<path opacity="0.98" fill-rule="evenodd" clip-rule="evenodd" d="M17.6506 19.9805C19.6114 19.8259 21.1048 20.576 22.1311 22.2306C22.7813 23.5491 22.8339 24.8913 22.289 26.2571C21.3164 28.1288 19.7703 28.9775 17.6506 28.8033C15.5124 28.402 14.2426 27.1322 13.8412 24.9939C13.6671 23.0328 14.4106 21.5393 16.0716 20.5134C16.5739 20.2501 17.1002 20.0724 17.6506 19.9805ZM17.927 20.2963C17.927 20.5068 17.927 20.7174 17.927 20.9279C18.1375 20.9279 18.3481 20.9279 18.5586 20.9279C18.5586 20.7174 18.5586 20.5068 18.5586 20.2963C18.3481 20.2963 18.1375 20.2963 17.927 20.2963ZM18.1244 21.2832C17.8483 21.6328 17.5917 22.0012 17.3546 22.3885C17.2988 22.7406 17.279 23.0958 17.2954 23.4544C16.6215 23.4363 15.9504 23.4561 15.2821 23.5136C14.9227 23.7284 14.574 23.9586 14.236 24.2044C14.1464 24.3708 14.1662 24.5221 14.2952 24.6584C14.6541 24.899 15.0225 25.1227 15.4005 25.3295C16.098 25.3426 16.7953 25.3558 17.4927 25.3689C17.5847 25.4545 17.69 25.5203 17.8085 25.5663C18.2619 25.6973 18.6764 25.6249 19.052 25.3492C19.4583 25.716 19.8531 26.0975 20.2363 26.494C20.3745 26.3558 20.5126 26.2177 20.6508 26.0795C20.2494 25.6782 19.8481 25.2768 19.4468 24.8755C19.4635 24.6266 19.4635 24.3766 19.4468 24.1255C19.4097 23.9459 19.3307 23.788 19.2099 23.6517C19.2072 23.2278 19.1808 22.8067 19.131 22.3885C18.9303 22.0529 18.7198 21.7239 18.4994 21.4016C18.3951 21.3018 18.2701 21.2623 18.1244 21.2832ZM21.7166 24.086C21.7166 24.2965 21.7166 24.5071 21.7166 24.7176C21.9272 24.7176 22.1377 24.7176 22.3483 24.7176C22.3483 24.5071 22.3483 24.2965 22.3483 24.086C22.1377 24.086 21.9272 24.086 21.7166 24.086ZM17.927 27.8756C17.927 28.0862 17.927 28.2967 17.927 28.5073C18.1375 28.5073 18.3481 28.5073 18.5586 28.5073C18.5586 28.2967 18.5586 28.0862 18.5586 27.8756C18.3481 27.8756 18.1375 27.8756 17.927 27.8756Z" fill="url(#paint3_linear_3779_137)"/>
<path opacity="0.904" fill-rule="evenodd" clip-rule="evenodd" d="M18.2033 22.1122C18.2427 22.1088 18.2755 22.122 18.302 22.1517C18.5506 22.4622 18.6295 22.8174 18.5389 23.2175C18.3415 23.1649 18.1441 23.1649 17.9467 23.2175C17.9204 22.9807 17.9204 22.7438 17.9467 22.507C18.0425 22.381 18.1281 22.2494 18.2033 22.1122Z" fill="url(#paint4_linear_3779_137)"/>
<path fill-rule="evenodd" clip-rule="evenodd" d="M25.5063 22.507C25.9274 22.507 26.3485 22.507 26.7696 22.507C26.7696 25.4545 26.7696 28.402 26.7696 31.3495C26.3485 31.3495 25.9274 31.3495 25.5063 31.3495C25.5063 28.402 25.5063 25.4545 25.5063 22.507Z" fill="url(#paint5_linear_3779_137)"/>
<path opacity="0.937" fill-rule="evenodd" clip-rule="evenodd" d="M18.006 23.7703C18.767 23.7351 19.0236 24.0772 18.7757 24.7966C18.5016 25.056 18.1924 25.102 17.8481 24.9348C17.5887 24.6607 17.5427 24.3514 17.7099 24.0071C17.7934 23.9037 17.892 23.8247 18.006 23.7703Z" fill="url(#paint6_linear_3779_137)"/>
<path opacity="0.958" fill-rule="evenodd" clip-rule="evenodd" d="M15.4006 24.0861C15.9534 24.0795 16.506 24.0861 17.0585 24.1058C17.0059 24.3032 17.0059 24.5006 17.0585 24.698C16.519 24.7243 15.9795 24.7243 15.44 24.698C15.2899 24.607 15.1451 24.5083 15.0058 24.4019C15.1386 24.2963 15.2702 24.191 15.4006 24.0861Z" fill="url(#paint7_linear_3779_137)"/>
<path opacity="0.985" fill-rule="evenodd" clip-rule="evenodd" d="M23.572 27.6783C23.6114 28.8953 23.6245 30.1191 23.6115 31.3496C23.1904 31.3496 22.7693 31.3496 22.3482 31.3496C22.3416 30.6126 22.3482 29.8757 22.368 29.1389C22.8657 28.7272 23.267 28.2404 23.572 27.6783Z" fill="url(#paint8_linear_3779_137)"/>
<path fill-rule="evenodd" clip-rule="evenodd" d="M12.5583 31.9812C18.6639 31.9812 24.7694 31.9812 30.875 31.9812C30.875 32.4023 30.875 32.8233 30.875 33.2444C24.7694 33.2444 18.6639 33.2444 12.5583 33.2444C12.5583 32.8233 12.5583 32.4023 12.5583 31.9812Z" fill="url(#paint9_linear_3779_137)"/>
<defs>
<linearGradient id="paint0_linear_3779_137" x1="21.2467" y1="14.5894" x2="21.2467" y2="19.995" gradientUnits="userSpaceOnUse">
<stop stop-color="#C7E63C"/>
<stop offset="1" stop-color="#FF8311"/>
</linearGradient>
<linearGradient id="paint1_linear_3779_137" x1="18.246" y1="18.6941" x2="18.246" y2="30.0839" gradientUnits="userSpaceOnUse">
<stop stop-color="#C7E63C"/>
<stop offset="1" stop-color="#FF8311"/>
</linearGradient>
<linearGradient id="paint2_linear_3779_137" x1="29.296" y1="19.349" x2="29.296" y2="31.3496" gradientUnits="userSpaceOnUse">
<stop stop-color="#C7E63C"/>
<stop offset="1" stop-color="#FF8311"/>
</linearGradient>
<linearGradient id="paint3_linear_3779_137" x1="18.2391" y1="19.9607" x2="18.2391" y2="28.8256" gradientUnits="userSpaceOnUse">
<stop stop-color="#C7E63C"/>
<stop offset="1" stop-color="#FF8311"/>
</linearGradient>
<linearGradient id="paint4_linear_3779_137" x1="18.2511" y1="22.1117" x2="18.2511" y2="23.2175" gradientUnits="userSpaceOnUse">
<stop/>
<stop offset="1" stop-color="#9C4B00"/>
</linearGradient>
<linearGradient id="paint5_linear_3779_137" x1="26.138" y1="22.507" x2="26.138" y2="31.3495" gradientUnits="userSpaceOnUse">
<stop stop-color="#C7E63C"/>
<stop offset="1" stop-color="#FF8311"/>
</linearGradient>
<linearGradient id="paint6_linear_3779_137" x1="18.2393" y1="23.7678" x2="18.2393" y2="25.0331" gradientUnits="userSpaceOnUse">
<stop/>
<stop offset="1" stop-color="#9C4B00"/>
</linearGradient>
<linearGradient id="paint7_linear_3779_137" x1="16.0322" y1="24.0836" x2="16.0322" y2="24.7177" gradientUnits="userSpaceOnUse">
<stop/>
<stop offset="1" stop-color="#9C4B00"/>
</linearGradient>
<linearGradient id="paint8_linear_3779_137" x1="22.9811" y1="27.6783" x2="22.9811" y2="31.3496" gradientUnits="userSpaceOnUse">
<stop stop-color="#C7E63C"/>
<stop offset="1" stop-color="#FF8311"/>
</linearGradient>
<linearGradient id="paint9_linear_3779_137" x1="21.7166" y1="31.9812" x2="21.7166" y2="33.2444" gradientUnits="userSpaceOnUse">
<stop stop-color="#C7E63C"/>
<stop offset="1" stop-color="#FF8311"/>
</linearGradient>
</defs>
</svg>
