<svg width="96" height="95" viewBox="0 0 96 95" fill="none" xmlns="http://www.w3.org/2000/svg">
<g filter="url(#filter0_f_3759_587)">
<circle cx="47.8904" cy="47.3904" r="43.3904" fill="url(#paint0_linear_3759_587)"/>
<circle cx="47.8904" cy="47.3904" r="42.8904" stroke="white"/>
</g>
<g filter="url(#filter1_i_3759_587)">
<path d="M29.5135 74V65.8844L48.2311 48.3266C49.823 46.7659 51.1581 45.3613 52.2365 44.1127C53.332 42.8642 54.1622 41.6416 54.727 40.4451C55.2919 39.2312 55.5743 37.922 55.5743 36.5173C55.5743 34.9566 55.2234 33.6127 54.5216 32.4855C53.8198 31.341 52.8613 30.4653 51.6459 29.8584C50.4306 29.2341 49.0527 28.922 47.5122 28.922C45.9032 28.922 44.4995 29.2514 43.3014 29.9104C42.1032 30.5694 41.1788 31.5145 40.5284 32.7457C39.8779 33.9769 39.5527 35.4422 39.5527 37.1416H29C29 33.6561 29.7788 30.6301 31.3365 28.0636C32.8941 25.4971 35.0766 23.5116 37.8838 22.1069C40.691 20.7023 43.9261 20 47.5892 20C51.355 20 54.6329 20.6763 57.423 22.0289C60.2302 23.3642 62.4126 25.2197 63.9703 27.5954C65.5279 29.9711 66.3068 32.6936 66.3068 35.763C66.3068 37.7746 65.9131 39.7601 65.1257 41.7197C64.3554 43.6792 62.9775 45.8555 60.9919 48.2486C59.0063 50.6243 56.2077 53.4769 52.5959 56.8064L44.9189 64.4277V64.7919H67V74H29.5135Z" fill="white"/>
</g>
<defs>
<filter id="filter0_f_3759_587" x="0.5" y="0" width="94.7807" height="94.7807" filterUnits="userSpaceOnUse" color-interpolation-filters="sRGB">
<feFlood flood-opacity="0" result="BackgroundImageFix"/>
<feBlend mode="normal" in="SourceGraphic" in2="BackgroundImageFix" result="shape"/>
<feGaussianBlur stdDeviation="2" result="effect1_foregroundBlur_3759_587"/>
</filter>
<filter id="filter1_i_3759_587" x="29" y="20" width="38" height="55" filterUnits="userSpaceOnUse" color-interpolation-filters="sRGB">
<feFlood flood-opacity="0" result="BackgroundImageFix"/>
<feBlend mode="normal" in="SourceGraphic" in2="BackgroundImageFix" result="shape"/>
<feColorMatrix in="SourceAlpha" type="matrix" values="0 0 0 0 0 0 0 0 0 0 0 0 0 0 0 0 0 0 127 0" result="hardAlpha"/>
<feOffset dy="1"/>
<feGaussianBlur stdDeviation="0.95"/>
<feComposite in2="hardAlpha" operator="arithmetic" k2="-1" k3="1"/>
<feColorMatrix type="matrix" values="0 0 0 0 1 0 0 0 0 0 0 0 0 0 0 0 0 0 1 0"/>
<feBlend mode="normal" in2="shape" result="effect1_innerShadow_3759_587"/>
</filter>
<linearGradient id="paint0_linear_3759_587" x1="47.8904" y1="4" x2="47.8904" y2="90.7807" gradientUnits="userSpaceOnUse">
<stop stop-color="white"/>
<stop offset="1" stop-color="#FF8311"/>
</linearGradient>
</defs>
</svg>
