<svg width="10" height="14" viewBox="0 0 10 14" fill="none" xmlns="http://www.w3.org/2000/svg">
<path fill-rule="evenodd" clip-rule="evenodd" d="M6.25448 13.8359C6.95062 12.8064 7.01477 11.6945 6.44692 10.5002C6.28901 11.1409 6.00015 11.5298 5.58032 11.6669C5.97018 10.5535 5.64441 9.35058 4.60297 8.05818C4.58049 9.39299 4.25972 10.3653 3.64063 10.9752C2.78778 11.8146 2.79782 12.7619 3.67071 13.8171C0.0471709 11.8888 -0.464047 9.30248 2.137 6.05834C2.29833 6.84206 2.68926 7.32323 3.30985 7.50184C2.6334 4.63127 3.34513 2.18534 5.44502 0.164062C5.45792 4.64972 6.83345 5.04842 8.5726 7.05072C10.4503 9.45358 9.34686 12.2265 6.25448 13.8359Z" fill="url(#paint0_linear_3759_403)"/>
<defs>
<linearGradient id="paint0_linear_3759_403" x1="9.19732" y1="3.91639" x2="1.19785" y2="11.9159" gradientUnits="userSpaceOnUse">
<stop stop-color="#EF3E3D"/>
<stop offset="1" stop-color="#FFC828"/>
</linearGradient>
</defs>
</svg>
