<svg width="52" height="51" viewBox="0 0 52 51" fill="none" xmlns="http://www.w3.org/2000/svg">
<path d="M20.9605 28.2926V26.7898C20.7472 26.9963 20.5248 27.1545 20.2978 27.26C20.0663 27.3698 19.8121 27.4225 19.5307 27.4225C19.1903 27.4225 18.877 27.3347 18.5956 27.1589C18.3142 26.9831 18.0918 26.7327 17.9329 26.4075C17.774 26.0824 17.6923 25.6957 17.6923 25.2519C17.6923 24.8081 17.774 24.4083 17.9329 24.0831C18.0963 23.758 18.3187 23.5119 18.6047 23.3405C18.8907 23.1692 19.2084 23.0857 19.5579 23.0857C19.853 23.0857 20.1208 23.1428 20.3523 23.2615C20.5838 23.3801 20.788 23.5602 20.956 23.8019V23.6745C20.956 23.4812 21.0059 23.3318 21.1013 23.2307C21.1966 23.1296 21.3237 23.0769 21.478 23.0769C21.6323 23.0769 21.7549 23.1252 21.8548 23.2263C21.9546 23.3274 22 23.4768 22 23.6745V28.2882C22 28.7627 21.8275 29 21.478 29C21.2647 29 21.1239 28.9341 21.0559 28.8066C20.9878 28.6792 20.956 28.5035 20.956 28.2882L20.9605 28.2926ZM18.7999 25.2431C18.7999 25.5287 18.8498 25.7748 18.9451 25.9857C19.0405 26.1966 19.1676 26.346 19.3219 26.4471C19.4762 26.5481 19.6442 26.5965 19.8257 26.5965C20.0209 26.5965 20.2025 26.5481 20.3659 26.4471C20.5293 26.346 20.661 26.1922 20.7608 25.9901C20.8607 25.7836 20.9106 25.5287 20.9106 25.2256C20.9106 25.0103 20.8834 24.8213 20.8244 24.6456C20.7654 24.4698 20.6882 24.3292 20.5883 24.2193C20.4885 24.1051 20.375 24.0216 20.2433 23.9645C20.1162 23.9074 19.9755 23.881 19.8303 23.881C19.5352 23.881 19.2901 23.9996 19.0904 24.2369C18.8952 24.4742 18.7953 24.8081 18.7953 25.2431H18.7999Z" fill="white"/>
<path d="M26.5754 25.3049V26.7132C26.5754 26.9355 26.5242 27.1012 26.4262 27.2146C26.3282 27.3279 26.1961 27.3802 26.0342 27.3802C25.8723 27.3802 25.7487 27.3236 25.6549 27.2146C25.5569 27.1056 25.5101 26.9355 25.5101 26.7132V25.0258C25.5101 24.7599 25.5015 24.5549 25.4845 24.4067C25.4674 24.2585 25.4206 24.1364 25.3396 24.0448C25.2629 23.9489 25.1393 23.9053 24.9689 23.9053C24.6322 23.9053 24.4064 24.023 24.2999 24.2628C24.1933 24.4983 24.1379 24.8427 24.1379 25.2874V26.7175C24.1379 26.9355 24.0911 27.1012 23.9931 27.2146C23.8951 27.3279 23.7672 27.3846 23.6096 27.3846C23.4519 27.3846 23.3241 27.3279 23.226 27.2146C23.128 27.1012 23.0769 26.9355 23.0769 26.7175V23.6873C23.0769 23.4867 23.1238 23.3385 23.2133 23.2339C23.3027 23.1292 23.4221 23.0769 23.5669 23.0769C23.7118 23.0769 23.8269 23.1249 23.9206 23.2208C24.0144 23.3167 24.0612 23.4519 24.0612 23.6219V23.7222C24.2402 23.5042 24.432 23.3385 24.6365 23.2382C24.841 23.1336 25.0669 23.0813 25.3183 23.0813C25.5697 23.0813 25.8041 23.1336 25.9873 23.2382C26.1748 23.3429 26.3282 23.5042 26.4475 23.7178C26.6222 23.4998 26.8097 23.3385 27.01 23.2339C27.2103 23.1292 27.4319 23.0769 27.6747 23.0769C27.956 23.0769 28.2031 23.1336 28.4077 23.2469C28.6122 23.3603 28.7656 23.5216 28.8679 23.7353C28.9574 23.9271 29 24.2279 29 24.6378V26.7044C29 26.9268 28.9488 27.0925 28.8508 27.2058C28.7528 27.3148 28.6207 27.3715 28.4588 27.3715C28.2969 27.3715 28.1733 27.3148 28.0753 27.2015C27.9773 27.0881 27.9262 26.9224 27.9262 26.7044V24.9255C27.9262 24.6988 27.9176 24.5157 27.8963 24.3805C27.875 24.2454 27.8281 24.1277 27.7429 24.0361C27.6577 23.9445 27.5341 23.8966 27.3637 23.8966C27.2273 23.8966 27.0995 23.9358 26.9759 24.0187C26.8523 24.1015 26.7586 24.2149 26.6904 24.3544C26.6137 24.5331 26.5754 24.8471 26.5754 25.3005V25.3049Z" fill="white"/>
<path d="M30.5859 23.6833V23.8107C30.7945 23.5646 31.0076 23.3801 31.2298 23.2658C31.452 23.1516 31.7059 23.0901 31.987 23.0901C32.3271 23.0901 32.64 23.1736 32.9211 23.3449C33.2068 23.5119 33.4335 23.7624 33.5967 24.0875C33.76 24.4127 33.8461 24.7993 33.8461 25.2431C33.8461 25.5727 33.7963 25.8715 33.701 26.1483C33.6058 26.4207 33.4743 26.6536 33.3065 26.8381C33.1388 27.0227 32.9438 27.1677 32.7171 27.2688C32.4904 27.3698 32.2455 27.4182 31.987 27.4182C31.6742 27.4182 31.4066 27.3566 31.1935 27.2336C30.9804 27.1106 30.7763 26.9304 30.5814 26.6931V28.2969C30.5814 28.7671 30.4045 29 30.0508 29C29.8423 29 29.7062 28.9385 29.6382 28.8198C29.5702 28.6968 29.5385 28.521 29.5385 28.2882V23.6833C29.5385 23.4812 29.5838 23.3274 29.6745 23.2263C29.7652 23.1252 29.8921 23.0769 30.0508 23.0769C30.2095 23.0769 30.332 23.1296 30.4317 23.2307C30.5315 23.3318 30.5768 23.4812 30.5768 23.6745L30.5859 23.6833ZM32.7443 25.2343C32.7443 24.9531 32.6989 24.7115 32.6128 24.5093C32.5221 24.3072 32.3997 24.1534 32.2455 24.0436C32.0868 23.9337 31.9145 23.881 31.724 23.881C31.4202 23.881 31.1663 23.9952 30.9577 24.2281C30.7491 24.461 30.6448 24.7993 30.6448 25.2519C30.6448 25.6781 30.7491 26.0077 30.9577 26.2406C31.1663 26.4778 31.4202 26.5965 31.7286 26.5965C31.9099 26.5965 32.0823 26.5438 32.2364 26.4427C32.3906 26.3416 32.5176 26.1834 32.6128 25.9813C32.708 25.7748 32.7533 25.5287 32.7533 25.2343H32.7443Z" fill="white"/>
<g clip-path="url(#clip0_3759_1120)">
<path d="M16.1348 22.9034C17.3085 18.131 22.0231 14.8206 26.9136 15.3634C31.7553 15.8035 35.7167 19.9744 35.8927 24.83C36.2204 31.7197 29.5056 36.8735 22.9474 34.7172C20.1011 33.8028 17.7438 31.5143 16.7559 28.6978C17.778 31.4997 20.1353 33.7392 22.9767 34.6194C29.4078 36.6535 35.9563 31.5877 35.5602 24.8496C35.2374 18.8302 29.3247 14.5419 23.5098 16.1555C20.2282 17.021 17.5531 19.7593 16.7755 23.0648C16.663 23.4902 16.0321 23.3337 16.1348 22.9034Z" fill="white"/>
<path d="M15.7436 20.6248C18.0372 15.6665 23.8815 13.0603 29.0997 14.6837C34.2886 16.1897 37.7218 21.5783 36.8855 26.913C35.7852 34.4971 27.3636 38.6925 20.6684 34.9518C17.7585 33.348 15.6751 30.3554 15.1909 27.0695C15.7142 30.3408 17.8123 33.2844 20.7222 34.8443C27.3049 38.4285 35.5211 34.2868 36.5187 26.8543C37.4431 20.2189 31.902 14.2925 25.2166 14.8157C21.4509 15.0651 17.9541 17.4855 16.4087 20.9279C16.1984 21.368 15.543 21.0648 15.7436 20.615V20.6248Z" fill="white"/>
<path d="M15.8025 18.0577C19.3579 13.1386 26.283 11.5299 31.6284 14.4099C36.9689 17.1531 39.5707 23.7592 37.5264 29.3971C34.7143 37.4359 24.6446 40.228 18.1353 34.727C15.2987 32.3603 13.6604 28.6539 13.8315 24.9719C13.7093 28.6539 15.3721 32.3066 18.2184 34.6292C24.6397 39.9297 34.4796 37.1621 37.1401 29.2651C39.556 22.2238 34.7681 14.586 27.3638 13.74C23.2068 13.2168 18.8786 15.1141 16.4627 18.5369C16.1399 18.9721 15.4895 18.5027 15.8025 18.0577Z" fill="white"/>
<path d="M16.4088 15.2705C21.3287 10.6546 29.2221 10.371 34.4452 14.6495C39.6879 18.7765 41.1258 26.5317 37.6975 32.2479C32.9291 40.4187 21.3482 41.3282 15.416 33.9495C12.824 30.7663 11.8263 26.3752 12.7946 22.3998C11.8801 26.3899 12.9169 30.7271 15.5284 33.8615C21.4069 41.0055 32.7286 40.0715 37.3062 32.0229C41.4339 24.8545 37.8295 15.5101 29.9361 13.0163C25.5101 11.5641 20.3897 12.7132 17.0299 15.9355C16.5848 16.3414 15.9735 15.6911 16.4088 15.2705Z" fill="white"/>
<path d="M17.6657 12.3562C24.0087 8.36614 32.6797 9.73039 37.4676 15.5003C42.3093 21.1089 42.2359 29.8763 37.2867 35.3822C30.3518 43.2841 17.5336 41.822 12.6235 32.5168C10.4716 28.4974 10.3151 23.4951 12.2127 19.3633C10.3689 23.5196 10.5841 28.468 12.7653 32.4434C17.6608 41.4798 30.2051 42.8587 36.9052 35.0546C42.9255 28.1111 40.9791 17.1531 32.8998 12.7621C28.3809 10.2389 22.5513 10.4101 18.1987 13.2119C17.6265 13.5591 17.1032 12.718 17.6657 12.3562Z" fill="white"/>
<path d="M19.6511 9.44196C27.4174 6.43475 36.5872 9.7598 40.5828 17.07C44.6714 24.214 42.7347 33.7589 36.1666 38.7171C26.9283 45.866 13.2543 41.5532 9.87488 30.3654C8.37836 25.5245 9.26844 20.0381 12.2175 15.9307C9.32224 20.0724 8.51041 25.5147 10.046 30.3116C13.4695 41.206 26.8599 45.3721 35.8243 38.277C43.8595 31.9839 44.0649 19.6127 36.1813 13.1142C31.7896 9.40285 25.3927 8.35154 20.0522 10.4884C19.3528 10.7475 18.9616 9.72068 19.6511 9.44196Z" fill="white"/>
<path d="M22.4337 6.68906C31.54 5.05587 40.837 10.6253 43.6442 19.4465C46.5932 28.1063 42.4509 38.1059 34.2396 42.1204C22.6489 47.9589 8.64718 40.3552 7.33161 27.4364C6.72518 21.8376 8.86237 16.0432 12.946 12.1852C8.91127 16.0921 6.86701 21.8523 7.52724 27.412C8.9504 40.0227 22.6734 47.4014 33.9559 41.563C44.055 36.3994 46.9013 22.9525 39.6779 14.1949C35.6725 9.21708 28.9186 6.71351 22.644 7.91151C21.8273 8.04842 21.617 6.84064 22.4288 6.68417L22.4337 6.68906Z" fill="white"/>
<path d="M26.0579 4.27346C36.3379 4.42015 45.2925 12.4687 46.4907 22.6835C47.8699 32.7516 41.2333 42.7805 31.4228 45.421C17.5434 49.328 3.88396 38.0717 5.18975 23.7006C5.71793 17.4661 9.27338 11.5984 14.5454 8.25863C9.3174 11.6619 5.86465 17.515 5.40982 23.7201C4.28988 37.7783 17.6901 48.7314 31.2321 44.756C43.3461 41.2647 49.293 27.2017 43.2776 16.1165C39.9667 9.83803 33.1296 5.67683 26.0285 5.65238C25.1091 5.62793 25.1335 4.26368 26.053 4.26857L26.0579 4.27346Z" fill="white"/>
<path d="M30.5179 2.40562C41.6977 4.74782 49.7623 15.4222 48.9016 26.8154C48.2707 38.0913 38.9052 47.6215 27.6471 48.4234C11.6794 49.7436 -0.830756 34.5706 3.63924 19.1727C5.53678 12.4884 10.6572 6.83576 17.1177 4.31263C10.6963 6.91889 5.68839 12.5715 3.87398 19.2363C-0.327025 34.331 11.9679 49.1226 27.5786 47.6557C41.5315 46.4186 50.9996 32.3409 46.7888 18.9722C44.5098 11.4224 37.932 5.43728 30.1951 3.90678C29.1974 3.68185 29.5104 2.20513 30.513 2.40562H30.5179Z" fill="white"/>
<path d="M35.7801 1.31994C47.4784 6.24395 54.0073 19.598 50.6523 31.842C47.5713 44.0078 35.335 52.4182 22.8885 50.9024C5.18949 48.9562 -5.23723 29.754 2.90559 13.9062C6.39258 7.01654 13.1807 1.94094 20.7611 0.557129C13.2003 2.03873 6.54418 7.13878 3.15012 14.0285C-4.63569 29.6025 5.63943 48.3401 22.9765 50.0515C38.4552 51.6554 51.7723 38.3112 50.0117 22.8399C49.1265 14.1214 43.2235 6.19994 35.1101 2.88956C34.0733 2.43481 34.7286 0.889635 35.7752 1.31994H35.7801Z" fill="white"/>
</g>
<defs>
<clipPath id="clip0_3759_1120">
<rect width="52" height="51" fill="white"/>
</clipPath>
</defs>
</svg>
